<svg width="30" height="30" viewBox="0 0 30 30" fill="none" xmlns="http://www.w3.org/2000/svg">
<g filter="url(#filter0_d_236_43)">
<path d="M19 10.37L18.0108 10.5167L19 10.37ZM15.63 7L15.4833 7.98918L15.63 7ZM20.5 4.5C19.9477 4.5 19.5 4.94772 19.5 5.5C19.5 6.05228 19.9477 6.5 20.5 6.5V4.5ZM20.51 6.5C21.0623 6.5 21.51 6.05228 21.51 5.5C21.51 4.94772 21.0623 4.5 20.51 4.5V6.5ZM10 2H20V0H10V2ZM20 2C22.2091 2 24 3.79086 24 6H26C26 2.68629 23.3137 0 20 0V2ZM24 6V16H26V6H24ZM24 16C24 18.2091 22.2091 20 20 20V22C23.3137 22 26 19.3137 26 16H24ZM20 20H10V22H20V20ZM10 20C7.79086 20 6 18.2091 6 16H4C4 19.3137 6.68629 22 10 22V20ZM6 16V6H4V16H6ZM6 6C6 3.79086 7.79086 2 10 2V0C6.68629 0 4 2.68629 4 6H6ZM18.0108 10.5167C18.1034 11.1409 17.9968 11.7783 17.7061 12.3384L19.4814 13.2596C19.9658 12.3261 20.1434 11.2636 19.9892 10.2233L18.0108 10.5167ZM17.7061 12.3384C17.4155 12.8985 16.9557 13.3527 16.392 13.6364L17.2912 15.4229C18.2306 14.9501 18.997 14.1931 19.4814 13.2596L17.7061 12.3384ZM16.392 13.6364C15.8284 13.9201 15.1897 14.0189 14.5667 13.9186L14.2489 15.8932C15.2872 16.0603 16.3518 15.8957 17.2912 15.4229L16.392 13.6364ZM14.5667 13.9186C13.9437 13.8184 13.3681 13.5242 12.9219 13.0781L11.5077 14.4923C12.2514 15.2359 13.2106 15.7262 14.2489 15.8932L14.5667 13.9186ZM12.9219 13.0781C12.4758 12.6319 12.1816 12.0563 12.0814 11.4333L10.1068 11.7511C10.2738 12.7894 10.7641 13.7486 11.5077 14.4923L12.9219 13.0781ZM12.0814 11.4333C11.9811 10.8103 12.0799 10.1716 12.3636 9.60796L10.5771 8.70878C10.1043 9.64818 9.93969 10.7128 10.1068 11.7511L12.0814 11.4333ZM12.3636 9.60796C12.6473 9.04432 13.1015 8.58449 13.6616 8.29386L12.7404 6.51862C11.8069 7.00299 11.0499 7.76938 10.5771 8.70878L12.3636 9.60796ZM13.6616 8.29386C14.2217 8.00324 14.8591 7.89662 15.4833 7.98918L15.7767 6.01082C14.7364 5.85655 13.6739 6.03424 12.7404 6.51862L13.6616 8.29386ZM15.4833 7.98918C16.12 8.0836 16.7095 8.38028 17.1646 8.83541L18.5788 7.4212C17.8202 6.66265 16.8378 6.16817 15.7767 6.01082L15.4833 7.98918ZM17.1646 8.83541C17.6197 9.29055 17.9164 9.87999 18.0108 10.5167L19.9892 10.2233C19.8318 9.16216 19.3374 8.17975 18.5788 7.4212L17.1646 8.83541ZM20.5 6.5H20.51V4.5H20.5V6.5Z" fill="white"/>
</g>
<defs>
<filter id="filter0_d_236_43" x="0" y="0" width="30" height="30" filterUnits="userSpaceOnUse" color-interpolation-filters="sRGB">
<feFlood flood-opacity="0" result="BackgroundImageFix"/>
<feColorMatrix in="SourceAlpha" type="matrix" values="0 0 0 0 0 0 0 0 0 0 0 0 0 0 0 0 0 0 127 0" result="hardAlpha"/>
<feOffset dy="4"/>
<feGaussianBlur stdDeviation="2"/>
<feComposite in2="hardAlpha" operator="out"/>
<feColorMatrix type="matrix" values="0 0 0 0 0 0 0 0 0 0 0 0 0 0 0 0 0 0 0.25 0"/>
<feBlend mode="normal" in2="BackgroundImageFix" result="effect1_dropShadow_236_43"/>
<feBlend mode="normal" in="SourceGraphic" in2="effect1_dropShadow_236_43" result="shape"/>
</filter>
</defs>
</svg>
