<svg width="31" height="31" viewBox="0 0 31 31" fill="none" xmlns="http://www.w3.org/2000/svg">
<g filter="url(#filter0_d_236_44)">
<path d="M20.6726 13.7564C20.3928 13.6126 18.9989 12.9298 18.7397 12.8374C18.4804 12.7398 18.2904 12.6936 18.103 12.9811C17.9131 13.2661 17.374 13.9001 17.2046 14.0926C17.0403 14.2826 16.8735 14.3057 16.5937 14.1645C14.9303 13.3328 13.8393 12.6808 12.7432 10.7992C12.4532 10.2987 13.0333 10.3346 13.5749 9.25391C13.6673 9.06395 13.6211 8.90223 13.5493 8.75848C13.4774 8.61473 12.9126 7.22344 12.6765 6.65614C12.448 6.10424 12.2119 6.18125 12.0399 6.17098C11.8756 6.16071 11.6882 6.16071 11.4982 6.16071C11.3083 6.16071 11.0028 6.23259 10.7436 6.51239C10.4843 6.79732 9.75271 7.4827 9.75271 8.874C9.75271 10.2653 10.7667 11.6129 10.9053 11.8029C11.049 11.9929 12.8998 14.8473 15.7414 16.0769C17.5383 16.8521 18.2417 16.9189 19.1401 16.7854C19.6869 16.7032 20.8138 16.1026 21.0474 15.4377C21.2809 14.7754 21.2809 14.2081 21.2116 14.0901C21.1423 13.9643 20.9524 13.8924 20.6726 13.7564Z" fill="white"/>
<path d="M26.1068 7.04375C25.5267 5.66529 24.695 4.42801 23.6349 3.36529C22.5747 2.30513 21.3374 1.47087 19.9564 0.893304C18.5446 0.300335 17.0455 0 15.5001 0H15.4488C13.8932 0.00770089 12.3864 0.315737 10.9695 0.92154C9.60126 1.50681 8.37425 2.3385 7.32436 3.39866C6.27448 4.45882 5.45048 5.69096 4.88061 7.06429C4.29021 8.48638 3.99244 9.99833 4.00015 11.5539C4.00785 13.3354 4.43396 15.104 5.23229 16.6853V20.5871C5.23229 21.2391 5.76108 21.7679 6.41309 21.7679H10.3174C11.8987 22.5662 13.6673 22.9923 15.4488 23H15.5027C17.0403 23 18.5317 22.7022 19.9359 22.1195C21.3092 21.5471 22.5439 20.7257 23.6015 19.6758C24.6616 18.6259 25.4959 17.3989 26.0786 16.0307C26.6844 14.6137 26.9924 13.1069 27.0001 11.5513C27.0078 9.98806 26.7049 8.47098 26.1068 7.04375ZM22.2282 18.2871C20.4287 20.0685 18.0414 21.0491 15.5001 21.0491H15.4565C13.9086 21.0414 12.371 20.6564 11.0131 19.9325L10.7975 19.817H7.18318V16.2027L7.06767 15.9871C6.34378 14.6291 5.95874 13.0915 5.95104 11.5436C5.94077 8.98438 6.91878 6.5817 8.71309 4.77199C10.5048 2.96228 12.8998 1.96116 15.4591 1.95089H15.5027C16.7862 1.95089 18.0312 2.19989 19.2043 2.69275C20.3491 3.17277 21.3759 3.86328 22.259 4.74632C23.1394 5.62679 23.8325 6.65614 24.3125 7.801C24.8105 8.98694 25.0595 10.2448 25.0544 11.5436C25.039 14.1003 24.0353 16.4953 22.2282 18.2871Z" fill="white"/>
</g>
<defs>
<filter id="filter0_d_236_44" x="0" y="0" width="31.0005" height="31" filterUnits="userSpaceOnUse" color-interpolation-filters="sRGB">
<feFlood flood-opacity="0" result="BackgroundImageFix"/>
<feColorMatrix in="SourceAlpha" type="matrix" values="0 0 0 0 0 0 0 0 0 0 0 0 0 0 0 0 0 0 127 0" result="hardAlpha"/>
<feOffset dy="4"/>
<feGaussianBlur stdDeviation="2"/>
<feComposite in2="hardAlpha" operator="out"/>
<feColorMatrix type="matrix" values="0 0 0 0 0 0 0 0 0 0 0 0 0 0 0 0 0 0 0.25 0"/>
<feBlend mode="normal" in2="BackgroundImageFix" result="effect1_dropShadow_236_44"/>
<feBlend mode="normal" in="SourceGraphic" in2="effect1_dropShadow_236_44" result="shape"/>
</filter>
</defs>
</svg>
